<?xml version="1.0" encoding="UTF-8" standalone="no"?>
<svg
   version="1.0"
   width="1094.5956pt"
   height="666.85229pt"
   viewBox="0 0 1094.5956 666.8523"
   preserveAspectRatio="xMidYMid"
   id="svg26"
   sodipodi:docname="duas_logo.svg"
   inkscape:version="1.2.2 (732a01da63, 2022-12-09)"
   xmlns:inkscape="http://www.inkscape.org/namespaces/inkscape"
   xmlns:sodipodi="http://sodipodi.sourceforge.net/DTD/sodipodi-0.dtd"
   xmlns="http://www.w3.org/2000/svg"
   xmlns:svg="http://www.w3.org/2000/svg">
  <defs
     id="defs30" />
  <sodipodi:namedview
     id="namedview28"
     pagecolor="#ffffff"
     bordercolor="#999999"
     borderopacity="1"
     inkscape:showpageshadow="0"
     inkscape:pageopacity="0"
     inkscape:pagecheckerboard="0"
     inkscape:deskcolor="#d1d1d1"
     inkscape:document-units="pt"
     showgrid="false"
     inkscape:zoom="0.53380102"
     inkscape:cx="291.30705"
     inkscape:cy="666.91517"
     inkscape:window-width="1920"
     inkscape:window-height="1017"
     inkscape:window-x="-8"
     inkscape:window-y="-8"
     inkscape:window-maximized="1"
     inkscape:current-layer="svg26" />
  <g
     transform="matrix(0.1,0,0,-0.1,-32.184533,966.825)"
     fill="#000000"
     stroke="none"
     id="g24"
     style="fill:#aa0000">
    <path
       d="m 5333,9654 c -139,-30 -323,-120 -466,-227 -109,-82 -332,-305 -441,-442 -229,-288 -486,-728 -718,-1229 -48,-105 -92,-192 -97,-194 -9,-3 3,70 38,223 11,50 26,115 32,145 7,30 25,111 41,180 15,69 38,166 49,215 11,50 33,144 49,210 16,66 38,162 50,212 26,109 22,149 -21,197 -69,80 -184,90 -252,22 -31,-31 -41,-66 -122,-421 -8,-33 -25,-107 -39,-165 -30,-126 -148,-661 -172,-780 -9,-47 -21,-89 -26,-95 -7,-7 -19,2 -36,25 -90,119 -255,263 -411,360 -218,135 -431,227 -951,407 -179,62 -429,162 -501,200 -47,25 -146,90 -220,144 -206,152 -247,178 -307,195 -158,46 -338,-37 -429,-196 -49,-86 -66,-167 -60,-285 12,-238 136,-492 330,-674 20,-19 37,-40 37,-46 0,-6 -18,-29 -41,-50 -64,-62 -92,-126 -97,-221 -5,-97 12,-164 70,-277 70,-134 234,-275 426,-366 73,-35 83,-48 59,-73 -57,-56 -97,-171 -97,-274 0,-282 293,-545 780,-699 388,-122 799,-62 1083,158 21,16 41,26 45,23 3,-4 -11,-110 -32,-236 -50,-297 -46,-331 40,-397 31,-23 47,-28 95,-28 49,0 63,5 96,31 43,34 40,29 138,344 141,452 293,899 423,1240 117,307 161,412 297,715 157,348 385,775 528,990 57,85 210,297 232,321 5,7 26,31 45,55 48,59 164,176 228,230 210,175 431,247 582,190 159,-60 275,-225 379,-539 131,-391 185,-730 185,-1162 1,-993 -263,-1807 -750,-2312 -241,-251 -500,-402 -819,-479 -128,-31 -450,-38 -632,-14 -179,23 -421,75 -675,144 -104,28 -145,27 -195,-5 -44,-29 -69,-71 -79,-134 -8,-47 22,-114 62,-144 52,-37 555,-153 859,-198 139,-20 516,-17 638,5 260,48 470,128 681,259 69,44 179,121 196,138 3,3 23,20 45,39 405,344 688,833 856,1481 37,141 50,204 80,370 87,497 96,1055 24,1490 -29,176 -35,202 -70,347 -139,562 -321,872 -590,1003 -44,21 -108,46 -141,54 -75,19 -225,19 -311,0 z M 876,8420 c 288,-212 411,-270 989,-470 888,-307 1214,-586 1215,-1036 1,-401 -237,-786 -568,-920 -141,-57 -324,-78 -458,-54 -253,45 -549,185 -666,315 -58,63 -74,140 -39,181 48,59 184,89 306,70 139,-22 204,-3 239,71 19,39 21,105 5,136 -34,66 -73,87 -229,122 -207,47 -479,156 -608,243 -73,50 -140,120 -167,177 -35,74 -33,100 6,114 53,18 215,13 297,-9 39,-11 88,-20 107,-20 106,0 182,116 141,215 -23,54 -60,81 -151,111 -155,50 -310,140 -419,243 -148,141 -244,345 -234,500 4,57 8,67 37,93 18,16 39,27 46,24 7,-2 75,-50 151,-106 z"
       id="path2"
       style="fill:#aa0000" />
    <path
       d="m 10010,8761 c -56,-59 -59,-99 -13,-186 35,-65 38,-76 38,-157 0,-85 -1,-89 -53,-190 -59,-115 -65,-161 -32,-216 34,-56 120,-78 180,-47 40,21 73,66 119,166 54,114 71,189 71,302 0,145 -45,265 -125,336 -31,27 -43,31 -92,31 -52,0 -59,-3 -93,-39 z"
       id="path4"
       style="fill:#aa0000" />
    <path
       d="m 9103,8361 c -69,-26 -132,-70 -187,-133 -48,-54 -121,-195 -149,-283 -33,-107 -86,-284 -107,-360 -136,-490 -343,-1039 -584,-1550 -88,-186 -197,-385 -212,-385 -21,0 -29,98 -28,340 0,224 7,297 55,635 57,404 146,879 243,1304 42,183 44,226 14,271 -41,59 -72,75 -146,75 -75,0 -109,-17 -137,-70 -8,-16 -56,-174 -106,-350 -324,-1145 -553,-1761 -800,-2152 -36,-58 -49,-2 -49,207 0,191 45,647 95,975 32,205 129,715 175,910 31,135 51,235 52,267 2,55 -27,110 -75,141 -102,66 -206,36 -241,-71 -24,-76 -154,-718 -205,-1017 -48,-278 -69,-433 -103,-740 -8,-74 -13,-247 -13,-450 0,-311 2,-335 23,-410 77,-277 229,-388 387,-283 25,16 65,53 89,81 67,79 210,312 304,496 46,92 88,168 93,169 5,2 9,-27 9,-65 0,-88 26,-332 45,-421 33,-161 105,-268 193,-292 89,-23 207,24 303,121 77,79 136,176 267,441 59,120 110,218 115,218 4,0 7,-75 7,-167 0,-247 29,-382 102,-477 42,-56 86,-86 150,-102 115,-30 226,34 320,186 32,51 116,245 168,387 12,35 26,61 30,58 5,-3 11,-33 15,-67 21,-193 92,-371 189,-475 75,-81 143,-115 229,-116 107,0 184,50 251,164 57,96 434,1072 581,1504 20,61 41,117 45,125 6,10 17,-5 41,-55 18,-39 79,-169 137,-290 117,-246 158,-343 201,-478 68,-211 77,-367 28,-463 -89,-174 -329,-252 -652,-212 -74,9 -103,8 -140,-2 -77,-22 -121,-95 -105,-178 21,-119 91,-145 395,-146 181,0 216,4 353,45 187,56 353,190 431,349 57,117 75,206 67,345 -13,249 -77,440 -309,915 -206,423 -261,582 -273,794 -11,189 16,313 100,463 59,105 64,130 36,187 -40,84 -108,118 -190,96 -54,-15 -99,-62 -154,-162 -79,-147 -126,-332 -126,-504 0,-53 -10,-106 -40,-210 -101,-346 -282,-862 -493,-1404 -163,-418 -182,-463 -194,-467 -15,-5 -47,67 -65,144 -16,71 -16,458 1,708 33,480 97,1032 167,1430 19,109 18,161 -6,209 -27,54 -60,76 -125,85 -48,7 -59,13 -112,67 -81,82 -136,107 -243,111 -65,3 -97,-1 -137,-16 z m 150,-321 c 27,-21 50,-80 67,-170 11,-58 10,-66 -51,-395 -82,-434 -142,-704 -233,-1040 -65,-238 -243,-746 -266,-760 -13,-8 -18,23 -25,150 -15,273 36,721 140,1225 59,288 58,283 150,635 58,222 97,319 141,354 33,26 45,26 77,1 z"
       id="path6"
       style="fill:#aa0000" />
  </g>
  <text
     xml:space="preserve"
     style="font-weight:bold;font-size:121.437px;font-family:Arial;-inkscape-font-specification:'Arial Bold';fill:#aa0000;stroke:#ffffff;stroke-width:1.40119"
     x="186.87065"
     y="664.61005"
     id="text518"><tspan
       sodipodi:role="line"
       id="tspan516"
       style="stroke-width:1.40119"
       x="186.87065"
       y="664.61005">SHOE SHOP</tspan></text>
</svg>
