<?xml version="1.0" standalone="no"?>
<!DOCTYPE svg PUBLIC "-//W3C//DTD SVG 20010904//EN"
 "http://www.w3.org/TR/2001/REC-SVG-20010904/DTD/svg10.dtd">
<svg version="1.0" xmlns="http://www.w3.org/2000/svg"
 width="150.000000pt" height="150.000000pt" viewBox="0 0 150.000000 150.000000"
 preserveAspectRatio="xMidYMid meet">

<g transform="translate(0.000000,150.000000) scale(0.100000,-0.100000)"
fill="#000000" stroke="none">
<path d="M757 1414 c3 -7 1 -14 -4 -14 -5 0 -18 -6 -29 -14 -18 -14 -18 -16
13 -48 52 -54 71 -104 78 -198 l6 -85 -63 -45 c-66 -47 -156 -80 -220 -80 -20
0 -39 -4 -42 -9 -3 -4 -23 -11 -45 -15 -21 -3 -41 -12 -44 -20 -3 -8 -31 -23
-62 -35 -31 -12 -68 -29 -83 -39 -15 -11 -44 -30 -64 -43 -40 -25 -43 -36 -15
-53 17 -11 142 6 175 24 35 19 139 43 197 46 43 2 63 8 72 20 7 10 13 12 13 6
0 -8 24 -12 79 -12 67 0 86 -4 137 -30 154 -78 362 -91 392 -25 22 47 13 79
-64 241 -19 39 -34 74 -34 78 0 4 -6 22 -14 39 -8 18 -19 48 -25 68 -7 20 -25
49 -42 65 -17 16 -41 38 -53 50 -11 12 -34 29 -51 38 -16 9 -37 21 -45 26 -13
8 -57 29 -152 71 -12 6 -16 4 -11 -7z m-90 -541 c-3 -10 -5 -4 -5 12 0 17 2
24 5 18 2 -7 2 -21 0 -30z"/>
</g>
</svg>
